<svg width="23" height="23" viewBox="0 0 23 23" fill="none" xmlns="http://www.w3.org/2000/svg">
<path opacity="0.1" fill-rule="evenodd" clip-rule="evenodd" d="M0.262817 11.5933C0.262817 5.44243 5.24907 0.456177 11.3999 0.456177C17.5508 0.456177 22.537 5.44243 22.537 11.5933C22.537 17.7441 17.5508 22.7304 11.3999 22.7304C5.24907 22.7304 0.262817 17.7441 0.262817 11.5933Z" fill="white"/>
<path fill-rule="evenodd" clip-rule="evenodd" d="M17.3397 11.5851C17.3397 11.9868 17.2988 12.3879 17.2184 12.7789C17.1401 13.1606 17.0241 13.5354 16.8721 13.8937C16.7236 14.2456 16.5395 14.5847 16.3242 14.901C16.1122 15.2153 15.868 15.5101 15.5997 15.7789C15.3308 16.0465 15.035 16.29 14.7209 16.5029C14.4036 16.7166 14.064 16.9006 13.7118 17.0497C13.3531 17.2009 12.9774 17.3168 12.596 17.3949C12.2045 17.4755 11.8019 17.5166 11.3996 17.5166C10.997 17.5166 10.5945 17.4755 10.2035 17.3949C9.82149 17.3168 9.44588 17.2009 9.08738 17.0497C8.73528 16.9006 8.39533 16.7166 8.07803 16.5029C7.76391 16.29 7.46807 16.0465 7.19978 15.7789C6.93121 15.5101 6.68698 15.2153 6.47467 14.901C6.26061 14.5847 6.07613 14.2456 5.92706 13.8937C5.77506 13.5354 5.65877 13.1606 5.58016 12.7789C5.5007 12.3879 5.46008 11.9868 5.46008 11.5851C5.46008 11.1831 5.50068 10.7811 5.58019 10.3909C5.65879 10.0092 5.77508 9.63383 5.92708 9.27615C6.07616 8.92397 6.26064 8.58454 6.47469 8.26825C6.687 7.95373 6.93123 7.65945 7.1998 7.39039C7.46809 7.12276 7.76394 6.87979 8.07805 6.6672C8.39536 6.45258 8.7353 6.26869 9.08741 6.11923C9.44591 5.96772 9.82149 5.8516 10.2035 5.77399C10.5945 5.69406 10.9971 5.6535 11.3996 5.6535C11.8019 5.6535 12.2045 5.69406 12.596 5.77399C12.9774 5.85162 13.3531 5.96775 13.7119 6.11923C14.064 6.26867 14.4036 6.45258 14.7209 6.6672C15.035 6.87979 15.3309 7.12276 15.5997 7.39039C15.868 7.65945 16.1123 7.95373 16.3243 8.26825C16.5395 8.58454 16.7236 8.924 16.8721 9.27615C17.0241 9.63383 17.1401 10.0092 17.2184 10.3909C17.2988 10.7811 17.3397 11.1831 17.3397 11.5851ZM9.23527 7.00345C7.82072 7.67047 6.76496 8.97204 6.43575 10.5407C6.56948 10.5418 8.68332 10.5685 11.1188 9.9223C10.2409 8.36468 9.30286 7.09355 9.23527 7.00345ZM11.5391 10.7023C8.92725 11.4831 6.42096 11.4269 6.33106 11.4235C6.3296 11.4779 6.32699 11.5306 6.32699 11.5851C6.32699 12.8863 6.81861 14.0726 7.62668 14.9696C7.62493 14.967 9.01311 12.5078 11.7505 11.6239C11.8166 11.6019 11.884 11.5822 11.9507 11.563C11.8233 11.2752 11.6844 10.9867 11.5391 10.7023ZM14.7496 7.78342C13.8565 6.99707 12.6839 6.52008 11.3996 6.52008C10.9874 6.52008 10.5875 6.5699 10.2043 6.662C10.2803 6.76396 11.2331 8.02614 12.1006 9.61674C14.0146 8.90022 14.7371 7.80195 14.7496 7.78342ZM12.2964 12.4024C12.2851 12.4061 12.2738 12.4093 12.2628 12.4134C9.26987 13.4553 8.2925 15.5549 8.28192 15.5778C9.14308 16.2466 10.2232 16.65 11.3996 16.65C12.1021 16.65 12.7712 16.5072 13.38 16.2486C13.3049 15.8061 13.0102 14.2548 12.2964 12.4024ZM14.2342 15.7858C15.3732 15.0183 16.1821 13.7996 16.4078 12.3879C16.3033 12.3543 14.8842 11.9056 13.2469 12.1678C13.9122 13.9936 14.1826 15.4805 14.2342 15.7858ZM12.4911 10.3715C12.6088 10.6131 12.7228 10.8589 12.8281 11.106C12.8655 11.1946 12.9021 11.2815 12.9377 11.3684C14.6803 11.1494 16.3971 11.5178 16.4705 11.5329C16.4589 10.3321 16.0287 9.23008 15.317 8.36731C15.3074 8.38089 14.4938 9.55475 12.4911 10.3715Z" fill="white"/>
</svg>
