<svg width="23" height="23" viewBox="0 0 23 23" fill="none" xmlns="http://www.w3.org/2000/svg">
<path opacity="0.1" fill-rule="evenodd" clip-rule="evenodd" d="M0.674072 11.5933C0.674072 5.44243 5.66033 0.456177 11.8112 0.456177C17.962 0.456177 22.9483 5.44243 22.9483 11.5933C22.9483 17.7441 17.962 22.7304 11.8112 22.7304C5.66033 22.7304 0.674072 17.7441 0.674072 11.5933Z" fill="white"/>
<path fill-rule="evenodd" clip-rule="evenodd" d="M11.4777 9.50854L11.501 9.89391L11.1115 9.84673C9.69373 9.66584 8.45509 9.05239 7.40341 8.02212L6.88926 7.51092L6.75683 7.88842C6.47638 8.72994 6.65556 9.61865 7.23982 10.2164C7.55143 10.5467 7.48131 10.5939 6.94379 10.3973C6.75683 10.3343 6.59323 10.2871 6.57765 10.3107C6.52312 10.3658 6.71009 11.0815 6.8581 11.3646C7.06064 11.7578 7.47352 12.1432 7.92535 12.3713L8.30707 12.5522L7.85524 12.56C7.41899 12.56 7.40341 12.5679 7.45015 12.7331C7.60596 13.2443 8.22138 13.7869 8.90692 14.0229L9.38991 14.188L8.96924 14.4397C8.34602 14.8015 7.61375 15.006 6.88147 15.0217C6.53091 15.0295 6.24268 15.061 6.24268 15.0846C6.24268 15.1632 7.19308 15.6037 7.74618 15.7767C9.40549 16.2879 11.3764 16.0677 12.8565 15.1947C13.9082 14.5734 14.9599 13.3386 15.4507 12.1432C15.7155 11.5062 15.9804 10.3422 15.9804 9.78381C15.9804 9.42203 16.0038 9.37485 16.44 8.94229C16.6971 8.69062 16.9386 8.41535 16.9853 8.33671C17.0632 8.18728 17.0554 8.18728 16.6581 8.32098C15.996 8.55692 15.9025 8.52546 16.2297 8.17155C16.4712 7.91988 16.7594 7.46373 16.7594 7.33003C16.7594 7.30643 16.6426 7.34576 16.5101 7.41654C16.3699 7.49519 16.0583 7.61316 15.8246 7.68394L15.4039 7.81764L15.0222 7.5581C14.8119 7.41654 14.5158 7.25925 14.36 7.21206C13.9627 7.10195 13.3551 7.11768 12.9968 7.24352C12.023 7.59743 11.4076 8.50973 11.4777 9.50854Z" fill="white"/>
</svg>
