<svg width="23" height="23" viewBox="0 0 23 23" fill="none" xmlns="http://www.w3.org/2000/svg">
<path opacity="0.1" fill-rule="evenodd" clip-rule="evenodd" d="M0.0854492 11.5933C0.0854492 5.44243 5.0717 0.456177 11.2226 0.456177C17.3734 0.456177 22.3597 5.44243 22.3597 11.5933C22.3597 17.7441 17.3734 22.7304 11.2226 22.7304C5.0717 22.7304 0.0854492 17.7441 0.0854492 11.5933Z" fill="white"/>
<path fill-rule="evenodd" clip-rule="evenodd" d="M15.8638 7.76462C16.375 7.90488 16.7776 8.31817 16.9142 8.84301C17.1624 9.79422 17.1624 11.7789 17.1624 11.7789C17.1624 11.7789 17.1624 13.7636 16.9142 14.7148C16.7776 15.2397 16.375 15.653 15.8638 15.7933C14.9375 16.0482 11.2226 16.0482 11.2226 16.0482C11.2226 16.0482 7.50776 16.0482 6.58136 15.7933C6.0702 15.653 5.66764 15.2397 5.53103 14.7148C5.28284 13.7636 5.28284 11.7789 5.28284 11.7789C5.28284 11.7789 5.28284 9.79422 5.53103 8.84301C5.66764 8.31817 6.0702 7.90488 6.58136 7.76462C7.50776 7.5097 11.2226 7.5097 11.2226 7.5097C11.2226 7.5097 14.9375 7.5097 15.8638 7.76462ZM10.1089 10.1083V13.8207L13.0788 11.9646L10.1089 10.1083Z" fill="white"/>
</svg>
