<svg width="125" height="37" viewBox="0 0 125 37" fill="none" xmlns="http://www.w3.org/2000/svg">
<rect x="0.0429688" y="0.41687" width="124.254" height="36.4899" rx="2.78428" fill="#4CAF4F"/>
<path d="M28.9959 16.621C28.9195 16.3811 28.8166 16.1662 28.6874 15.9763C28.5609 15.7839 28.4093 15.6204 28.2326 15.4859C28.056 15.3488 27.8543 15.2447 27.6275 15.1735C27.4034 15.1023 27.1569 15.0667 26.888 15.0667C26.4318 15.0667 26.0205 15.184 25.654 15.4187C25.2875 15.6534 24.9975 15.9974 24.7839 16.4509C24.573 16.9018 24.4675 17.4542 24.4675 18.1081C24.4675 18.7646 24.5743 19.3196 24.7879 19.7731C25.0014 20.2266 25.2941 20.5707 25.6659 20.8053C26.0376 21.04 26.4608 21.1573 26.9354 21.1573C27.3757 21.1573 27.7594 21.0677 28.0863 20.8884C28.4159 20.7091 28.6703 20.456 28.8496 20.129C29.0315 19.7994 29.1225 19.4119 29.1225 18.9663L29.4389 19.0256H27.1213V18.0171H30.305V18.9386C30.305 19.6188 30.16 20.2094 29.87 20.7104C29.5826 21.2087 29.1845 21.5937 28.6756 21.8652C28.1694 22.1368 27.5893 22.2726 26.9354 22.2726C26.2024 22.2726 25.5591 22.1039 25.0054 21.7664C24.4543 21.4289 24.0246 20.9503 23.7161 20.3307C23.4076 19.7085 23.2534 18.9702 23.2534 18.116C23.2534 17.47 23.343 16.8899 23.5223 16.3758C23.7016 15.8616 23.9534 15.4253 24.2777 15.0667C24.6046 14.7055 24.9883 14.43 25.4286 14.2401C25.8715 14.0476 26.3554 13.9514 26.88 13.9514C27.3177 13.9514 27.7251 14.016 28.1021 14.1452C28.4818 14.2744 28.8193 14.4576 29.1146 14.6949C29.4125 14.9322 29.659 15.2144 29.8542 15.5413C30.0493 15.8656 30.1811 16.2255 30.2497 16.621H28.9959ZM34.3796 22.2845C33.7811 22.2845 33.2656 22.1566 32.8332 21.9008C32.4034 21.6424 32.0712 21.2799 31.8366 20.8132C31.6045 20.3439 31.4885 19.7942 31.4885 19.164C31.4885 18.5418 31.6045 17.9934 31.8366 17.5188C32.0712 17.0442 32.3982 16.6737 32.8174 16.4074C33.2393 16.1411 33.7323 16.008 34.2965 16.008C34.6393 16.008 34.9715 16.0647 35.2932 16.178C35.6149 16.2914 35.9036 16.4694 36.1593 16.712C36.4151 16.9545 36.6168 17.2696 36.7644 17.6572C36.9121 18.0421 36.9859 18.5101 36.9859 19.0612V19.4804H32.1569V18.5945H35.8271C35.8271 18.2834 35.7638 18.0079 35.6373 17.7679C35.5107 17.5254 35.3327 17.3342 35.1034 17.1945C34.8766 17.0547 34.6103 16.9848 34.3045 16.9848C33.9722 16.9848 33.6822 17.0666 33.4344 17.2301C33.1892 17.3909 32.9993 17.6018 32.8649 17.8628C32.733 18.1212 32.6671 18.402 32.6671 18.7052V19.3974C32.6671 19.8034 32.7383 20.1488 32.8807 20.4336C33.0257 20.7183 33.2274 20.9358 33.4858 21.0861C33.7442 21.2338 34.0461 21.3076 34.3915 21.3076C34.6156 21.3076 34.8199 21.276 35.0045 21.2127C35.189 21.1468 35.3486 21.0492 35.483 20.92C35.6175 20.7908 35.7203 20.6313 35.7915 20.4415L36.9108 20.6432C36.8211 20.9727 36.6603 21.2615 36.4283 21.5093C36.1989 21.7545 35.9102 21.9457 35.5621 22.0828C35.2167 22.2172 34.8225 22.2845 34.3796 22.2845ZM41.1336 16.0871V17.0363H37.8155V16.0871H41.1336ZM38.7053 14.6317H39.8878V20.3782C39.8878 20.6076 39.9221 20.7803 39.9907 20.8963C40.0592 21.0097 40.1475 21.0874 40.2556 21.1296C40.3664 21.1692 40.4864 21.1889 40.6155 21.1889C40.7105 21.1889 40.7935 21.1824 40.8647 21.1692C40.9359 21.156 40.9913 21.1454 41.0308 21.1375L41.2444 22.1144C41.1758 22.1408 41.0783 22.1671 40.9517 22.1935C40.8252 22.2225 40.667 22.2383 40.4771 22.241C40.166 22.2462 39.876 22.1909 39.607 22.0749C39.3381 21.9588 39.1206 21.7796 38.9545 21.537C38.7884 21.2944 38.7053 20.9899 38.7053 20.6234V14.6317ZM47.157 22.2963C46.7721 22.2963 46.424 22.2251 46.1129 22.0828C45.8018 21.9378 45.5553 21.7281 45.3733 21.4539C45.1941 21.1797 45.1044 20.8436 45.1044 20.4454C45.1044 20.1027 45.1703 19.8205 45.3022 19.5991C45.434 19.3776 45.612 19.2023 45.8361 19.0731C46.0602 18.9439 46.3107 18.8463 46.5875 18.7804C46.8644 18.7145 47.1465 18.6644 47.4339 18.6301C47.7977 18.5879 48.093 18.5536 48.3198 18.5273C48.5465 18.4983 48.7113 18.4521 48.8141 18.3889C48.917 18.3256 48.9684 18.2227 48.9684 18.0804V18.0527C48.9684 17.7073 48.8708 17.4397 48.6757 17.2498C48.4832 17.06 48.1959 16.9651 47.8135 16.9651C47.4154 16.9651 47.1017 17.0534 46.8723 17.2301C46.6455 17.4041 46.4886 17.5979 46.4016 17.8114L45.2903 17.5583C45.4221 17.1892 45.6146 16.8912 45.8677 16.6645C46.1235 16.4351 46.4174 16.269 46.7497 16.1662C47.0819 16.0607 47.4312 16.008 47.7977 16.008C48.0403 16.008 48.2974 16.037 48.5689 16.095C48.8431 16.1504 49.0989 16.2532 49.3362 16.4035C49.5761 16.5538 49.7726 16.7686 49.9255 17.0481C50.0784 17.325 50.1549 17.6849 50.1549 18.1278V22.1619H49V21.3313H48.9526C48.8761 21.4843 48.7614 21.6345 48.6085 21.7822C48.4556 21.9298 48.2591 22.0524 48.0192 22.15C47.7793 22.2476 47.4919 22.2963 47.157 22.2963ZM47.4141 21.3471C47.741 21.3471 48.0205 21.2826 48.2525 21.1534C48.4872 21.0242 48.6652 20.8554 48.7865 20.6471C48.9104 20.4362 48.9723 20.2108 48.9723 19.9708V19.1878C48.9302 19.2299 48.8484 19.2695 48.7271 19.3064C48.6085 19.3407 48.4727 19.371 48.3198 19.3974C48.1668 19.4211 48.0179 19.4435 47.8729 19.4646C47.7279 19.4831 47.6066 19.4989 47.509 19.5121C47.2796 19.5411 47.07 19.5898 46.8802 19.6584C46.693 19.7269 46.5427 19.8258 46.4293 19.955C46.3186 20.0816 46.2632 20.2503 46.2632 20.4612C46.2632 20.7539 46.3713 20.9754 46.5875 21.1257C46.8037 21.2733 47.0792 21.3471 47.4141 21.3471ZM57.3944 22.1619H54.7723V14.0621H57.4774C58.2711 14.0621 58.9526 14.2243 59.5221 14.5486C60.0917 14.8703 60.528 15.333 60.8312 15.9368C61.1371 16.5379 61.29 17.2591 61.29 18.1001C61.29 18.9439 61.1358 19.6689 60.8273 20.2754C60.5214 20.8818 60.0785 21.3485 59.4984 21.6754C58.9184 21.9997 58.217 22.1619 57.3944 22.1619ZM55.9943 21.094H57.3271C57.9441 21.094 58.4569 20.978 58.8656 20.746C59.2743 20.5113 59.5801 20.1725 59.7832 19.7296C59.9862 19.284 60.0877 18.7408 60.0877 18.1001C60.0877 17.4647 59.9862 16.9255 59.7832 16.4826C59.5828 16.0396 59.2835 15.7034 58.8854 15.4741C58.4873 15.2447 57.9929 15.13 57.4023 15.13H55.9943V21.094ZM65.3329 22.2845C64.7344 22.2845 64.219 22.1566 63.7866 21.9008C63.3568 21.6424 63.0246 21.2799 62.7899 20.8132C62.5579 20.3439 62.4419 19.7942 62.4419 19.164C62.4419 18.5418 62.5579 17.9934 62.7899 17.5188C63.0246 17.0442 63.3515 16.6737 63.7707 16.4074C64.1926 16.1411 64.6856 16.008 65.2499 16.008C65.5926 16.008 65.9249 16.0647 66.2465 16.178C66.5682 16.2914 66.8569 16.4694 67.1127 16.712C67.3684 16.9545 67.5701 17.2696 67.7178 17.6572C67.8654 18.0421 67.9392 18.5101 67.9392 19.0612V19.4804H63.1103V18.5945H66.7804C66.7804 18.2834 66.7172 18.0079 66.5906 17.7679C66.464 17.5254 66.2861 17.3342 66.0567 17.1945C65.8299 17.0547 65.5636 16.9848 65.2578 16.9848C64.9256 16.9848 64.6355 17.0666 64.3877 17.2301C64.1425 17.3909 63.9527 17.6018 63.8182 17.8628C63.6864 18.1212 63.6204 18.402 63.6204 18.7052V19.3974C63.6204 19.8034 63.6916 20.1488 63.834 20.4336C63.979 20.7183 64.1807 20.9358 64.4391 21.0861C64.6975 21.2338 64.9994 21.3076 65.3448 21.3076C65.5689 21.3076 65.7733 21.276 65.9578 21.2127C66.1424 21.1468 66.3019 21.0492 66.4364 20.92C66.5708 20.7908 66.6737 20.6313 66.7448 20.4415L67.8641 20.6432C67.7745 20.9727 67.6136 21.2615 67.3816 21.5093C67.1522 21.7545 66.8635 21.9457 66.5155 22.0828C66.1701 22.2172 65.7759 22.2845 65.3329 22.2845ZM69.2513 22.1619V16.0871H70.3864V17.0758H70.4615C70.5881 16.741 70.795 16.4799 71.0824 16.2927C71.3698 16.1029 71.7139 16.008 72.1147 16.008C72.5207 16.008 72.8608 16.1029 73.135 16.2927C73.4119 16.4826 73.6162 16.7436 73.7481 17.0758H73.8113C73.9564 16.7515 74.1871 16.4931 74.5035 16.3006C74.8199 16.1055 75.1969 16.008 75.6346 16.008C76.1856 16.008 76.6352 16.1807 76.9832 16.5261C77.3339 16.8715 77.5092 17.3922 77.5092 18.0883V22.1619H76.3267V18.199C76.3267 17.7877 76.2146 17.4898 75.9905 17.3052C75.7664 17.1206 75.4988 17.0284 75.1877 17.0284C74.8027 17.0284 74.5035 17.147 74.2899 17.3843C74.0763 17.619 73.9695 17.9209 73.9695 18.29V22.1619H72.791V18.1239C72.791 17.7943 72.6881 17.5293 72.4825 17.3289C72.2768 17.1285 72.0092 17.0284 71.6796 17.0284C71.4555 17.0284 71.2485 17.0877 71.0587 17.2063C70.8715 17.3223 70.7199 17.4845 70.6039 17.6928C70.4905 17.9011 70.4338 18.1423 70.4338 18.4165V22.1619H69.2513ZM81.653 22.2845C81.0835 22.2845 80.5865 22.154 80.162 21.8929C79.7375 21.6319 79.4079 21.2667 79.1733 20.7974C78.9386 20.3281 78.8213 19.7797 78.8213 19.1522C78.8213 18.522 78.9386 17.9709 79.1733 17.499C79.4079 17.027 79.7375 16.6605 80.162 16.3995C80.5865 16.1385 81.0835 16.008 81.653 16.008C82.2225 16.008 82.7195 16.1385 83.144 16.3995C83.5685 16.6605 83.8981 17.027 84.1327 17.499C84.3674 17.9709 84.4847 18.522 84.4847 19.1522C84.4847 19.7797 84.3674 20.3281 84.1327 20.7974C83.8981 21.2667 83.5685 21.6319 83.144 21.8929C82.7195 22.154 82.2225 22.2845 81.653 22.2845ZM81.657 21.2918C82.0261 21.2918 82.3319 21.1942 82.5745 20.9991C82.8171 20.804 82.9964 20.5443 83.1124 20.22C83.231 19.8957 83.2903 19.5384 83.2903 19.1482C83.2903 18.7606 83.231 18.4047 83.1124 18.0804C82.9964 17.7534 82.8171 17.4911 82.5745 17.2933C82.3319 17.0956 82.0261 16.9967 81.657 16.9967C81.2852 16.9967 80.9767 17.0956 80.7315 17.2933C80.4889 17.4911 80.3083 17.7534 80.1897 18.0804C80.0737 18.4047 80.0157 18.7606 80.0157 19.1482C80.0157 19.5384 80.0737 19.8957 80.1897 20.22C80.3083 20.5443 80.4889 20.804 80.7315 20.9991C80.9767 21.1942 81.2852 21.2918 81.657 21.2918Z" fill="white"/>
<path d="M98.7167 20.7501L100.436 19.031C100.64 18.8271 100.64 18.4966 100.436 18.2927L98.7167 16.5736M100.283 18.6619L92.626 18.6619" stroke="white" stroke-width="0.765676" stroke-linecap="round"/>
</svg>
