<svg width="134" height="38" viewBox="0 0 134 38" fill="none" xmlns="http://www.w3.org/2000/svg">
<rect x="0.511963" y="0.755127" width="133.254" height="36.4899" rx="2.78428" fill="#4CAF4F"/>
<path d="M24.1112 22.5V14.4003H26.9983C27.6258 14.4003 28.1466 14.5084 28.5605 14.7246C28.9771 14.9408 29.2882 15.24 29.4939 15.6224C29.6995 16.002 29.8024 16.441 29.8024 16.9394C29.8024 17.435 29.6982 17.8714 29.4899 18.2484C29.2843 18.6228 28.9731 18.9142 28.5565 19.1225C28.1426 19.3308 27.6219 19.4349 26.9943 19.4349H24.8073V18.3829H26.8836C27.2791 18.3829 27.6008 18.3262 27.8486 18.2128C28.0991 18.0995 28.2823 17.9347 28.3983 17.7185C28.5144 17.5023 28.5724 17.2426 28.5724 16.9394C28.5724 16.6335 28.513 16.3685 28.3944 16.1444C28.2784 15.9203 28.0951 15.7489 27.8447 15.6303C27.5968 15.509 27.2712 15.4483 26.8678 15.4483H25.3333V22.5H24.1112ZM28.1096 18.8456L30.1108 22.5H28.7187L26.757 18.8456H28.1096ZM33.7365 22.6226C33.138 22.6226 32.6226 22.4947 32.1901 22.239C31.7604 21.9806 31.4282 21.618 31.1935 21.1514C30.9615 20.682 30.8455 20.1323 30.8455 19.5022C30.8455 18.8799 30.9615 18.3315 31.1935 17.8569C31.4282 17.3823 31.7551 17.0119 32.1743 16.7456C32.5962 16.4793 33.0892 16.3461 33.6535 16.3461C33.9962 16.3461 34.3285 16.4028 34.6501 16.5162C34.9718 16.6296 35.2605 16.8075 35.5163 17.0501C35.772 17.2927 35.9737 17.6077 36.1214 17.9953C36.269 18.3803 36.3428 18.8483 36.3428 19.3993V19.8186H31.5139V18.9326H35.184C35.184 18.6215 35.1208 18.346 34.9942 18.1061C34.8676 17.8635 34.6897 17.6723 34.4603 17.5326C34.2335 17.3929 33.9672 17.323 33.6614 17.323C33.3292 17.323 33.0391 17.4047 32.7913 17.5682C32.5461 17.729 32.3563 17.94 32.2218 18.201C32.09 18.4594 32.024 18.7402 32.024 19.0434V19.7355C32.024 20.1415 32.0952 20.4869 32.2376 20.7717C32.3826 21.0564 32.5843 21.274 32.8427 21.4243C33.1011 21.5719 33.403 21.6457 33.7484 21.6457C33.9725 21.6457 34.1768 21.6141 34.3614 21.5508C34.546 21.4849 34.7055 21.3873 34.84 21.2581C34.9744 21.129 35.0773 20.9694 35.1484 20.7796L36.2677 20.9813C36.178 21.3109 36.0172 21.5996 35.7852 21.8474C35.5558 22.0926 35.2671 22.2838 34.9191 22.4209C34.5737 22.5554 34.1795 22.6226 33.7365 22.6226ZM40.2019 24.9046C39.7194 24.9046 39.3041 24.8413 38.9561 24.7148C38.6107 24.5882 38.3285 24.4208 38.1097 24.2125C37.8909 24.0042 37.7274 23.7761 37.6193 23.5283L38.6357 23.1091C38.7069 23.2251 38.8018 23.3477 38.9205 23.4769C39.0418 23.6087 39.2052 23.7208 39.4109 23.813C39.6192 23.9053 39.8868 23.9515 40.2137 23.9515C40.662 23.9515 41.0324 23.842 41.3251 23.6232C41.6177 23.407 41.7641 23.0616 41.7641 22.587V21.3926H41.6889C41.6177 21.5218 41.5149 21.6655 41.3804 21.8237C41.2486 21.9819 41.0667 22.119 40.8347 22.235C40.6026 22.351 40.3007 22.409 39.929 22.409C39.4491 22.409 39.0167 22.297 38.6318 22.0729C38.2494 21.8461 37.9462 21.5126 37.7221 21.0723C37.5006 20.6293 37.3899 20.0848 37.3899 19.4389C37.3899 18.7929 37.4993 18.2392 37.7182 17.7778C37.9396 17.3164 38.2429 16.9631 38.6278 16.7179C39.0127 16.47 39.4491 16.3461 39.9369 16.3461C40.3139 16.3461 40.6185 16.4094 40.8505 16.536C41.0825 16.6599 41.2631 16.8049 41.3923 16.971C41.5241 17.1371 41.6256 17.2834 41.6968 17.41H41.7838V16.4252H42.9426V22.6345C42.9426 23.1565 42.8214 23.585 42.5788 23.9198C42.3362 24.2547 42.008 24.5025 41.594 24.6634C41.1827 24.8242 40.7186 24.9046 40.2019 24.9046ZM40.19 21.4282C40.5301 21.4282 40.8175 21.3491 41.0522 21.1909C41.2895 21.0301 41.4688 20.8007 41.5901 20.5028C41.714 20.2022 41.7759 19.8423 41.7759 19.4231C41.7759 19.0144 41.7153 18.6545 41.594 18.3434C41.4727 18.0322 41.2947 17.7897 41.0601 17.6156C40.8254 17.439 40.5354 17.3507 40.19 17.3507C39.8341 17.3507 39.5374 17.4429 39.3001 17.6275C39.0628 17.8094 38.8836 18.0573 38.7623 18.371C38.6436 18.6848 38.5843 19.0355 38.5843 19.4231C38.5843 19.8212 38.6449 20.1705 38.7662 20.4711C38.8875 20.7717 39.0668 21.0064 39.3041 21.1751C39.544 21.3438 39.8393 21.4282 40.19 21.4282ZM44.5286 22.5V16.4252H45.7111V22.5H44.5286ZM45.1258 15.4879C44.9201 15.4879 44.7435 15.4193 44.5958 15.2822C44.4508 15.1425 44.3783 14.9764 44.3783 14.7839C44.3783 14.5888 44.4508 14.4227 44.5958 14.2856C44.7435 14.1458 44.9201 14.076 45.1258 14.076C45.3314 14.076 45.5068 14.1458 45.6518 14.2856C45.7994 14.4227 45.8733 14.5888 45.8733 14.7839C45.8733 14.9764 45.7994 15.1425 45.6518 15.2822C45.5068 15.4193 45.3314 15.4879 45.1258 15.4879ZM51.8541 17.9083L50.7823 18.0982C50.7375 17.961 50.6663 17.8305 50.5688 17.7066C50.4738 17.5827 50.3446 17.4812 50.1812 17.4021C50.0177 17.323 49.8134 17.2834 49.5682 17.2834C49.2333 17.2834 48.9538 17.3586 48.7297 17.5089C48.5056 17.6565 48.3935 17.8477 48.3935 18.0823C48.3935 18.2854 48.4687 18.4488 48.619 18.5727C48.7693 18.6967 49.0118 18.7982 49.3467 18.8773L50.3117 19.0988C50.8707 19.2279 51.2872 19.427 51.5614 19.6959C51.8357 19.9649 51.9728 20.3142 51.9728 20.744C51.9728 21.1079 51.8673 21.4322 51.6564 21.7169C51.4481 21.999 51.1567 22.2205 50.7823 22.3814C50.4106 22.5422 49.9795 22.6226 49.4891 22.6226C48.8088 22.6226 48.2538 22.4776 47.824 22.1876C47.3943 21.8949 47.1306 21.4796 47.033 20.9418L48.176 20.7677C48.2472 21.0657 48.3935 21.2911 48.615 21.444C48.8365 21.5943 49.1252 21.6695 49.4811 21.6695C49.8687 21.6695 50.1785 21.589 50.4106 21.4282C50.6426 21.2647 50.7586 21.0657 50.7586 20.831C50.7586 20.6412 50.6874 20.4817 50.545 20.3525C50.4053 20.2233 50.1904 20.1257 49.9004 20.0598L48.8721 19.8344C48.3052 19.7052 47.886 19.4995 47.6144 19.2174C47.3455 18.9353 47.211 18.578 47.211 18.1456C47.211 17.787 47.3112 17.4733 47.5116 17.2043C47.712 16.9354 47.9888 16.7258 48.3421 16.5755C48.6954 16.4226 49.1002 16.3461 49.5563 16.3461C50.2128 16.3461 50.7296 16.4885 51.1066 16.7732C51.4837 17.0554 51.7328 17.4337 51.8541 17.9083ZM56.1086 16.4252V17.3744H52.7904V16.4252H56.1086ZM53.6803 14.9698H54.8628V20.7163C54.8628 20.9457 54.8971 21.1184 54.9657 21.2344C55.0342 21.3478 55.1225 21.4256 55.2306 21.4678C55.3414 21.5073 55.4613 21.5271 55.5905 21.5271C55.6855 21.5271 55.7685 21.5205 55.8397 21.5073C55.9109 21.4941 55.9663 21.4836 56.0058 21.4757L56.2194 22.4525C56.1508 22.4789 56.0533 22.5053 55.9267 22.5316C55.8002 22.5606 55.642 22.5765 55.4521 22.5791C55.141 22.5844 54.851 22.529 54.582 22.413C54.3131 22.297 54.0956 22.1177 53.9295 21.8751C53.7634 21.6325 53.6803 21.328 53.6803 20.9615V14.9698ZM59.9696 22.6226C59.3711 22.6226 58.8557 22.4947 58.4233 22.239C57.9935 21.9806 57.6613 21.618 57.4266 21.1514C57.1946 20.682 57.0786 20.1323 57.0786 19.5022C57.0786 18.8799 57.1946 18.3315 57.4266 17.8569C57.6613 17.3823 57.9882 17.0119 58.4074 16.7456C58.8293 16.4793 59.3224 16.3461 59.8866 16.3461C60.2294 16.3461 60.5616 16.4028 60.8832 16.5162C61.2049 16.6296 61.4936 16.8075 61.7494 17.0501C62.0051 17.2927 62.2068 17.6077 62.3545 17.9953C62.5021 18.3803 62.576 18.8483 62.576 19.3993V19.8186H57.747V18.9326H61.4172C61.4172 18.6215 61.3539 18.346 61.2273 18.1061C61.1008 17.8635 60.9228 17.6723 60.6934 17.5326C60.4667 17.3929 60.2004 17.323 59.8945 17.323C59.5623 17.323 59.2723 17.4047 59.0244 17.5682C58.7792 17.729 58.5894 17.94 58.4549 18.201C58.3231 18.4594 58.2572 18.7402 58.2572 19.0434V19.7355C58.2572 20.1415 58.3283 20.4869 58.4707 20.7717C58.6157 21.0564 58.8174 21.274 59.0758 21.4243C59.3342 21.5719 59.6361 21.6457 59.9815 21.6457C60.2056 21.6457 60.41 21.6141 60.5945 21.5508C60.7791 21.4849 60.9386 21.3873 61.0731 21.2581C61.2075 21.129 61.3104 20.9694 61.3816 20.7796L62.5008 20.9813C62.4112 21.3109 62.2503 21.5996 62.0183 21.8474C61.7889 22.0926 61.5002 22.2838 61.1522 22.4209C60.8068 22.5554 60.4126 22.6226 59.9696 22.6226ZM63.888 22.5V16.4252H65.031V17.3902H65.0943C65.205 17.0633 65.4001 16.8062 65.6796 16.619C65.9617 16.4292 66.2807 16.3342 66.6367 16.3342C66.7105 16.3342 66.7975 16.3369 66.8977 16.3422C67.0005 16.3474 67.081 16.354 67.139 16.3619V17.493C67.0915 17.4799 67.0071 17.4654 66.8859 17.4495C66.7646 17.4311 66.6433 17.4219 66.522 17.4219C66.2425 17.4219 65.9934 17.4812 65.7745 17.5998C65.5583 17.7158 65.3869 17.878 65.2604 18.0863C65.1338 18.2919 65.0705 18.5266 65.0705 18.7903V22.5H63.888ZM77.7422 14.4003V22.5H76.619L72.5019 16.5597H72.4267V22.5H71.2046V14.4003H72.3358L76.4568 20.3485H76.532V14.4003H77.7422ZM81.9888 22.6226C81.4193 22.6226 80.9223 22.4921 80.4978 22.2311C80.0733 21.97 79.7437 21.6049 79.509 21.1355C79.2744 20.6662 79.157 20.1178 79.157 19.4903C79.157 18.8601 79.2744 18.3091 79.509 17.8371C79.7437 17.3652 80.0733 16.9987 80.4978 16.7377C80.9223 16.4766 81.4193 16.3461 81.9888 16.3461C82.5583 16.3461 83.0553 16.4766 83.4798 16.7377C83.9043 16.9987 84.2339 17.3652 84.4685 17.8371C84.7032 18.3091 84.8205 18.8601 84.8205 19.4903C84.8205 20.1178 84.7032 20.6662 84.4685 21.1355C84.2339 21.6049 83.9043 21.97 83.4798 22.2311C83.0553 22.4921 82.5583 22.6226 81.9888 22.6226ZM81.9927 21.6299C82.3619 21.6299 82.6677 21.5324 82.9103 21.3372C83.1529 21.1421 83.3321 20.8824 83.4482 20.5581C83.5668 20.2338 83.6261 19.8766 83.6261 19.4863C83.6261 19.0988 83.5668 18.7428 83.4482 18.4185C83.3321 18.0916 83.1529 17.8292 82.9103 17.6315C82.6677 17.4337 82.3619 17.3348 81.9927 17.3348C81.621 17.3348 81.3125 17.4337 81.0673 17.6315C80.8247 17.8292 80.6441 18.0916 80.5255 18.4185C80.4094 18.7428 80.3514 19.0988 80.3514 19.4863C80.3514 19.8766 80.4094 20.2338 80.5255 20.5581C80.6441 20.8824 80.8247 21.1421 81.0673 21.3372C81.3125 21.5324 81.621 21.6299 81.9927 21.6299ZM87.2726 22.5L85.4849 16.4252H86.707L87.8975 20.8864H87.9568L89.1512 16.4252H90.3733L91.5597 20.8666H91.6191L92.8016 16.4252H94.0237L92.24 22.5H91.0337L89.7998 18.114H89.7088L88.4749 22.5H87.2726Z" fill="white"/>
<path d="M108.186 21.0886L109.905 19.3695C110.109 19.1656 110.109 18.8351 109.905 18.6312L108.186 16.9121M109.752 19.0004L102.095 19.0004" stroke="white" stroke-width="0.765676" stroke-linecap="round"/>
</svg>
